<svg id="Layer_1" data-name="Layer 1" xmlns="http://www.w3.org/2000/svg" viewBox="0 0 398.86 375.24"><defs><style>.cls-1{fill:none;}.cls-2{fill:#fff;}</style></defs><title>stars2</title><rect class="cls-1" x="270.96" y="91.24" width="4.86" height="5.04"/><path class="cls-2" d="M310,165.52c3.24,0,3.25-5,0-5s-3.25,5,0,5h0Z" transform="translate(-36.61 -69.24)"/><rect class="cls-1" x="206.72" y="175.69" width="10.93" height="11.32"/><path class="cls-2" d="M248.79,256.25c7.28,0,7.29-11.32,0-11.32s-7.29,11.32,0,11.32h0Z" transform="translate(-36.61 -69.24)"/><rect class="cls-1" x="180.33" y="180.9" width="14.4" height="14.91"/><path class="cls-2" d="M224.14,265c9.59,0,9.61-14.91,0-14.91s-9.61,14.91,0,14.91h0Z" transform="translate(-36.61 -69.24)"/><rect class="cls-1" x="259.08" y="237.88" width="11.18" height="11.58"/><path class="cls-2" d="M301.28,318.69c7.45,0,7.46-11.58,0-11.58s-7.46,11.58,0,11.58h0Z" transform="translate(-36.61 -69.24)"/><rect class="cls-1" x="280.38" y="270.13" width="10.26" height="10.62"/><path class="cls-2" d="M322.12,350c6.83,0,6.85-10.62,0-10.62s-6.85,10.62,0,10.62h0Z" transform="translate(-36.61 -69.24)"/><rect class="cls-1" x="248.65" y="331.59" width="7.27" height="7.52"/><path class="cls-2" d="M288.89,408.35c4.84,0,4.85-7.52,0-7.52s-4.85,7.52,0,7.52h0Z" transform="translate(-36.61 -69.24)"/><rect class="cls-1" x="233.55" y="325.39" width="9.1" height="9.42"/><path class="cls-2" d="M274.71,404c6.06,0,6.07-9.42,0-9.42s-6.07,9.42,0,9.42h0Z" transform="translate(-36.61 -69.24)"/><rect class="cls-1" x="214.26" y="289.37" width="7.99" height="8.27"/><path class="cls-2" d="M254.87,366.88c5.32,0,5.33-8.27,0-8.27s-5.33,8.27,0,8.27h0Z" transform="translate(-36.61 -69.24)"/><rect class="cls-1" x="166.22" y="336.12" width="12.34" height="12.77"/><path class="cls-2" d="M209,418.13c8.22,0,8.23-12.77,0-12.77s-8.23,12.77,0,12.77h0Z" transform="translate(-36.61 -69.24)"/><rect class="cls-1" x="126.23" y="365.54" width="9.37" height="9.7"/><path class="cls-2" d="M167.53,444.48c6.24,0,6.25-9.7,0-9.7s-6.25,9.7,0,9.7h0Z" transform="translate(-36.61 -69.24)"/><rect class="cls-1" x="103.51" y="298.62" width="13.55" height="14.03"/><path class="cls-2" d="M146.9,381.89c9,0,9-14,0-14s-9,14,0,14h0Z" transform="translate(-36.61 -69.24)"/><rect class="cls-1" x="64.75" y="320.34" width="11.18" height="11.57"/><path class="cls-2" d="M107,401.14c7.44,0,7.46-11.57,0-11.57s-7.46,11.57,0,11.57h0Z" transform="translate(-36.61 -69.24)"/><rect class="cls-1" x="47.94" y="359.31" width="13.51" height="13.99"/><path class="cls-2" d="M91.31,442.54c9,0,9-14,0-14s-9,14,0,14h0Z" transform="translate(-36.61 -69.24)"/><rect class="cls-1" x="65.6" y="284.9" width="12.47" height="12.91"/><path class="cls-2" d="M108.45,367c8.31,0,8.32-12.91,0-12.91s-8.32,12.91,0,12.91h0Z" transform="translate(-36.61 -69.24)"/><rect class="cls-1" x="29.08" y="209.24" width="10.19" height="10.55"/><path class="cls-2" d="M70.78,289c6.79,0,6.8-10.55,0-10.55S64,289,70.78,289h0Z" transform="translate(-36.61 -69.24)"/><rect class="cls-1" x="69.37" y="155.06" width="10.11" height="10.46"/><path class="cls-2" d="M111,234.76c6.73,0,6.74-10.46,0-10.46s-6.74,10.46,0,10.46h0Z" transform="translate(-36.61 -69.24)"/><rect class="cls-1" y="124.71" width="8.4" height="8.7"/><path class="cls-2" d="M40.81,202.64c5.6,0,5.61-8.7,0-8.7s-5.61,8.7,0,8.7h0Z" transform="translate(-36.61 -69.24)"/><rect class="cls-1" x="18.88" y="86.34" width="10.62" height="10.99"/><path class="cls-2" d="M60.8,166.57c7.07,0,7.08-11,0-11s-7.08,11,0,11h0Z" transform="translate(-36.61 -69.24)"/><rect class="cls-1" x="0.19" y="10.57" width="14.11" height="14.61"/><path class="cls-2" d="M43.85,94.41c9.4,0,9.41-14.61,0-14.61s-9.41,14.61,0,14.61h0Z" transform="translate(-36.61 -69.24)"/><rect class="cls-1" x="22.04" y="31.45" width="8.54" height="8.84"/><path class="cls-2" d="M62.92,109.52c5.69,0,5.7-8.84,0-8.84s-5.7,8.84,0,8.84h0Z" transform="translate(-36.61 -69.24)"/><rect class="cls-1" x="90.78" y="53.05" width="11.36" height="11.76"/><path class="cls-2" d="M133.07,134c7.56,0,7.58-11.76,0-11.76s-7.58,11.76,0,11.76h0Z" transform="translate(-36.61 -69.24)"/><rect class="cls-1" x="143.9" y="30.1" width="10.32" height="10.68"/><path class="cls-2" d="M185.67,110c6.88,0,6.89-10.68,0-10.68s-6.89,10.68,0,10.68h0Z" transform="translate(-36.61 -69.24)"/><rect class="cls-1" x="220.87" y="11.3" width="13.77" height="14.26"/><path class="cls-2" d="M264.37,94.8c9.17,0,9.19-14.26,0-14.26s-9.19,14.26,0,14.26h0Z" transform="translate(-36.61 -69.24)"/><rect class="cls-1" x="237.47" width="10.97" height="11.35"/><path class="cls-2" d="M279.57,80.59c7.3,0,7.32-11.35,0-11.35s-7.32,11.35,0,11.35h0Z" transform="translate(-36.61 -69.24)"/><rect class="cls-1" x="326.15" y="4.06" width="12.25" height="12.68"/><path class="cls-2" d="M368.88,86c8.16,0,8.17-12.68,0-12.68S360.71,86,368.88,86h0Z" transform="translate(-36.61 -69.24)"/><rect class="cls-1" x="330.8" y="39.13" width="13.58" height="14.06"/><path class="cls-2" d="M374.19,122.43c9,0,9.06-14.06,0-14.06s-9.06,14.06,0,14.06h0Z" transform="translate(-36.61 -69.24)"/><rect class="cls-1" x="349.81" y="77.47" width="7.81" height="8.09"/><path class="cls-2" d="M390.33,154.79c5.2,0,5.21-8.09,0-8.09s-5.21,8.09,0,8.09h0Z" transform="translate(-36.61 -69.24)"/><rect class="cls-1" x="385.71" y="101.09" width="13.15" height="13.61"/><path class="cls-2" d="M428.9,183.94c8.76,0,8.77-13.61,0-13.61s-8.77,13.61,0,13.61h0Z" transform="translate(-36.61 -69.24)"/><rect class="cls-1" x="297.72" y="128.23" width="8.06" height="8.35"/><path class="cls-2" d="M338.36,205.82c5.37,0,5.38-8.35,0-8.35s-5.38,8.35,0,8.35h0Z" transform="translate(-36.61 -69.24)"/><rect class="cls-1" x="341.95" y="185.14" width="8.68" height="8.99"/><path class="cls-2" d="M382.9,263.36c5.78,0,5.79-9,0-9s-5.79,9,0,9h0Z" transform="translate(-36.61 -69.24)"/><rect class="cls-1" x="310.76" y="243.7" width="9.92" height="10.27"/><path class="cls-2" d="M352.33,323.21c6.61,0,6.62-10.27,0-10.27s-6.62,10.27,0,10.27h0Z" transform="translate(-36.61 -69.24)"/><rect class="cls-1" x="343.81" y="295.68" width="13.39" height="13.87"/><path class="cls-2" d="M387.12,378.78c8.92,0,8.94-13.87,0-13.87s-8.94,13.87,0,13.87h0Z" transform="translate(-36.61 -69.24)"/><rect class="cls-1" x="372.61" y="361.08" width="7.92" height="8.2"/><path class="cls-2" d="M413.18,438.52c5.28,0,5.29-8.2,0-8.2s-5.29,8.2,0,8.2h0Z" transform="translate(-36.61 -69.24)"/></svg>