<svg id="Layer_1" data-name="Layer 1" xmlns="http://www.w3.org/2000/svg" viewBox="0 0 874.05 840.31"><defs><style>.cls-1{fill:none;}.cls-2{fill:#fff;}</style></defs><title>stars5</title><rect class="cls-1" x="520.08" y="248.72" width="4.86" height="5.04"/><path class="cls-2" d="M310,165.52c3.24,0,3.25-5,0-5s-3.25,5,0,5h0Z" transform="translate(212.52 88.24)"/><rect class="cls-1" x="438.99" y="360.3" width="10.94" height="11.33"/><path class="cls-2" d="M231.94,283.39c7.29,0,7.3-11.33,0-11.33s-7.3,11.33,0,11.33h0Z" transform="translate(212.52 88.24)"/><rect class="cls-1" x="498.18" y="419.19" width="11.87" height="12.29"/><path class="cls-2" d="M291.6,343.24c7.91,0,7.92-12.29,0-12.29s-7.92,12.29,0,12.29h0Z" transform="translate(212.52 88.24)"/><rect class="cls-1" x="442.8" y="451.69" width="13.84" height="14.33"/><path class="cls-2" d="M237.2,377.78c9.22,0,9.23-14.33,0-14.33s-9.23,14.33,0,14.33h0Z" transform="translate(212.52 88.24)"/><rect class="cls-1" x="519.45" y="490.61" width="7.83" height="8.1"/><path class="cls-2" d="M310.84,410.47c5.21,0,5.22-8.1,0-8.1s-5.22,8.1,0,8.1h0Z" transform="translate(212.52 88.24)"/><rect class="cls-1" x="481.61" y="534.98" width="9.01" height="9.32"/><path class="cls-2" d="M273.6,456.07c6,0,6-9.32,0-9.32s-6,9.32,0,9.32h0Z" transform="translate(212.52 88.24)"/><rect class="cls-1" x="439.49" y="566.96" width="13.13" height="13.6"/><path class="cls-2" d="M233.54,492.32c8.75,0,8.76-13.6,0-13.6s-8.76,13.6,0,13.6h0Z" transform="translate(212.52 88.24)"/><rect class="cls-1" x="391.12" y="494.28" width="14.07" height="14.56"/><path class="cls-2" d="M185.64,420.6c9.37,0,9.38-14.56,0-14.56s-9.38,14.56,0,14.56h0Z" transform="translate(212.52 88.24)"/><rect class="cls-1" x="355.6" y="546.79" width="9.48" height="9.81"/><path class="cls-2" d="M147.82,468.36c6.31,0,6.32-9.81,0-9.81s-6.32,9.81,0,9.81h0Z" transform="translate(212.52 88.24)"/><rect class="cls-1" x="330.41" y="574.04" width="7.91" height="8.19"/><path class="cls-2" d="M121.86,494c5.27,0,5.28-8.19,0-8.19s-5.28,8.19,0,8.19h0Z" transform="translate(212.52 88.24)"/><rect class="cls-1" x="249.83" y="534.73" width="13.91" height="14.4"/><path class="cls-2" d="M44.27,460.89c9.27,0,9.28-14.4,0-14.4s-9.28,14.4,0,14.4h0Z" transform="translate(212.52 88.24)"/><rect class="cls-1" x="224.21" y="563.63" width="9.42" height="9.75"/><path class="cls-2" d="M16.41,485.15c6.27,0,6.29-9.75,0-9.75s-6.29,9.75,0,9.75h0Z" transform="translate(212.52 88.24)"/><rect class="cls-1" x="183.07" y="601.27" width="9.18" height="9.5"/><path class="cls-2" d="M-24.85,522.53c6.12,0,6.13-9.5,0-9.5s-6.13,9.5,0,9.5h0Z" transform="translate(212.52 88.24)"/><rect class="cls-1" x="91.01" y="583.57" width="10.81" height="11.19"/><path class="cls-2" d="M-116.1,506.52c7.2,0,7.21-11.19,0-11.19s-7.21,11.19,0,11.19h0Z" transform="translate(212.52 88.24)"/><rect class="cls-1" x="74.78" y="574.24" width="13.29" height="13.76"/><path class="cls-2" d="M-131.09,499.76c8.85,0,8.87-13.76,0-13.76s-8.87,13.76,0,13.76h0Z" transform="translate(212.52 88.24)"/><rect class="cls-1" x="60.19" y="557.82" width="9.6" height="9.93"/><path class="cls-2" d="M-147.53,479.52c6.39,0,6.4-9.93,0-9.93s-6.4,9.93,0,9.93h0Z" transform="translate(212.52 88.24)"/><rect class="cls-1" x="35.33" y="513.99" width="9.12" height="9.44"/><path class="cls-2" d="M-172.62,435.19c6.08,0,6.09-9.44,0-9.44s-6.09,9.44,0,9.44h0Z" transform="translate(212.52 88.24)"/><rect class="cls-1" y="439.5" width="10.19" height="10.55"/><path class="cls-2" d="M-207.42,361.81c6.79,0,6.8-10.55,0-10.55s-6.8,10.55,0,10.55h0Z" transform="translate(212.52 88.24)"/><rect class="cls-1" x="50.94" y="375.18" width="13.98" height="14.47"/><path class="cls-2" d="M-154.59,301.41c9.31,0,9.32-14.47,0-14.47s-9.32,14.47,0,14.47h0Z" transform="translate(212.52 88.24)"/><rect class="cls-1" x="4.1" y="315.46" width="14.07" height="14.56"/><path class="cls-2" d="M-201.38,241.78c9.37,0,9.39-14.56,0-14.56s-9.39,14.56,0,14.56h0Z" transform="translate(212.52 88.24)"/><rect class="cls-1" x="11.18" y="302.54" width="9.08" height="9.4"/><path class="cls-2" d="M-196.8,223.7c6,0,6.06-9.4,0-9.4s-6.06,9.4,0,9.4h0Z" transform="translate(212.52 88.24)"/><rect class="cls-1" x="33.17" y="264.6" width="10.36" height="10.72"/><path class="cls-2" d="M-174.17,187.08c6.9,0,6.91-10.72,0-10.72s-6.91,10.72,0,10.72h0Z" transform="translate(212.52 88.24)"/><rect class="cls-1" x="65.46" y="240.27" width="11.21" height="11.61"/><path class="cls-2" d="M-141.45,163.64c7.47,0,7.48-11.61,0-11.61s-7.48,11.61,0,11.61h0Z" transform="translate(212.52 88.24)"/><rect class="cls-1" x="24.29" y="172.03" width="9.2" height="9.53"/><path class="cls-2" d="M-183.62,93.32c6.13,0,6.14-9.53,0-9.53s-6.14,9.53,0,9.53h0Z" transform="translate(212.52 88.24)"/><rect class="cls-1" x="23.36" y="86.76" width="7.87" height="8.15"/><path class="cls-2" d="M-185.22,6.67c5.24,0,5.25-8.15,0-8.15s-5.25,8.15,0,8.15h0Z" transform="translate(212.52 88.24)"/><rect class="cls-1" x="57.45" y="118.09" width="8.45" height="8.75"/><path class="cls-2" d="M-150.84,38.6c5.63,0,5.64-8.75,0-8.75s-5.64,8.75,0,8.75h0Z" transform="translate(212.52 88.24)"/><rect class="cls-1" x="112.97" y="65.43" width="11.42" height="11.82"/><path class="cls-2" d="M-93.83-11c7.61,0,7.62-11.82,0-11.82S-101.45-11-93.83-11h0Z" transform="translate(212.52 88.24)"/><rect class="cls-1" x="173.35" y="74.68" width="7.26" height="7.51"/><path class="cls-2" d="M-35.53-6c4.84,0,4.84-7.51,0-7.51S-40.37-6-35.53-6h0Z" transform="translate(212.52 88.24)"/><rect class="cls-1" x="254.66" y="72.79" width="12.11" height="12.54"/><path class="cls-2" d="M48.2-2.91c8.07,0,8.08-12.54,0-12.54s-8.08,12.54,0,12.54h0Z" transform="translate(212.52 88.24)"/><rect class="cls-1" x="274.51" y="94.52" width="11.61" height="12.02"/><path class="cls-2" d="M67.8,18.3c7.73,0,7.74-12,0-12s-7.74,12,0,12h0Z" transform="translate(212.52 88.24)"/><rect class="cls-1" x="290.33" y="18.53" width="11.75" height="12.17"/><path class="cls-2" d="M83.7-57.54c7.83,0,7.84-12.17,0-12.17s-7.84,12.17,0,12.17h0Z" transform="translate(212.52 88.24)"/><rect class="cls-1" x="327.95" y="44.83" width="12.14" height="12.57"/><path class="cls-2" d="M121.5-30.84c8.09,0,8.1-12.57,0-12.57s-8.1,12.57,0,12.57h0Z" transform="translate(212.52 88.24)"/><rect class="cls-1" x="397.18" y="17.41" width="7.57" height="7.83"/><path class="cls-2" d="M188.45-63c5,0,5-7.83,0-7.83s-5,7.83,0,7.83h0Z" transform="translate(212.52 88.24)"/><rect class="cls-1" x="479.19" y="13.65" width="12.42" height="12.86"/><path class="cls-2" d="M272.88-61.73c8.27,0,8.29-12.86,0-12.86s-8.29,12.86,0,12.86h0Z" transform="translate(212.52 88.24)"/><rect class="cls-1" x="531.29" y="13.65" width="14.1" height="14.59"/><path class="cls-2" d="M325.82-60c9.39,0,9.41-14.59,0-14.59S316.42-60,325.82-60h0Z" transform="translate(212.52 88.24)"/><rect class="cls-1" x="610.73" y="74.6" width="8.12" height="8.41"/><path class="cls-2" d="M402.28-5.23c5.41,0,5.42-8.41,0-8.41s-5.42,8.41,0,8.41h0Z" transform="translate(212.52 88.24)"/><rect class="cls-1" x="653.21" y="14.96" width="13.2" height="13.67"/><path class="cls-2" d="M447.3-59.61c8.8,0,8.81-13.67,0-13.67s-8.81,13.67,0,13.67h0Z" transform="translate(212.52 88.24)"/><rect class="cls-1" x="677.48" y="12.93" width="8.33" height="8.63"/><path class="cls-2" d="M469.13-66.68c5.55,0,5.56-8.63,0-8.63s-5.56,8.63,0,8.63h0Z" transform="translate(212.52 88.24)"/><rect class="cls-1" x="710.17" y="84.6" width="12.42" height="12.86"/><path class="cls-2" d="M503.86,9.22c8.28,0,8.29-12.86,0-12.86s-8.29,12.86,0,12.86h0Z" transform="translate(212.52 88.24)"/><rect class="cls-1" x="741.76" y="26.41" width="10.56" height="10.93"/><path class="cls-2" d="M534.52-50.9c7,0,7-10.93,0-10.93s-7,10.93,0,10.93h0Z" transform="translate(212.52 88.24)"/><rect class="cls-1" x="790.6" width="11.5" height="11.9"/><path class="cls-2" d="M583.84-76.34c7.66,0,7.67-11.9,0-11.9s-7.67,11.9,0,11.9h0Z" transform="translate(212.52 88.24)"/><rect class="cls-1" x="793.61" y="53.89" width="10.93" height="11.32"/><path class="cls-2" d="M586.56-23c7.28,0,7.29-11.32,0-11.32S579.27-23,586.56-23h0Z" transform="translate(212.52 88.24)"/><rect class="cls-1" x="772.43" y="128.13" width="14.4" height="14.91"/><path class="cls-2" d="M567.11,54.79c9.59,0,9.61-14.91,0-14.91s-9.61,14.91,0,14.91h0Z" transform="translate(212.52 88.24)"/><rect class="cls-1" x="846.87" y="191.98" width="11.18" height="11.58"/><path class="cls-2" d="M639.95,115.31c7.45,0,7.46-11.58,0-11.58s-7.46,11.58,0,11.58h0Z" transform="translate(212.52 88.24)"/><rect class="cls-1" x="863.79" y="229.35" width="10.26" height="10.62"/><path class="cls-2" d="M656.4,151.73c6.83,0,6.85-10.62,0-10.62s-6.85,10.62,0,10.62h0Z" transform="translate(212.52 88.24)"/><rect class="cls-1" x="814.01" y="284.38" width="7.27" height="7.52"/><path class="cls-2" d="M605.13,203.67c4.84,0,4.85-7.52,0-7.52s-4.85,7.52,0,7.52h0Z" transform="translate(212.52 88.24)"/><rect class="cls-1" x="795.6" y="307.61" width="9.1" height="9.42"/><path class="cls-2" d="M587.64,228.79c6.06,0,6.07-9.42,0-9.42s-6.07,9.42,0,9.42h0Z" transform="translate(212.52 88.24)"/><rect class="cls-1" x="768.36" y="359.3" width="7.99" height="8.27"/><path class="cls-2" d="M559.83,279.33c5.32,0,5.33-8.27,0-8.27s-5.33,8.27,0,8.27h0Z" transform="translate(212.52 88.24)"/><rect class="cls-1" x="804.72" y="411.47" width="12.34" height="12.77"/><path class="cls-2" d="M598.38,336c8.22,0,8.23-12.77,0-12.77s-8.23,12.77,0,12.77h0Z" transform="translate(212.52 88.24)"/><rect class="cls-1" x="828.58" y="459.47" width="9.37" height="9.7"/><path class="cls-2" d="M620.75,380.94c6.24,0,6.25-9.7,0-9.7s-6.25,9.7,0,9.7h0Z" transform="translate(212.52 88.24)"/><rect class="cls-1" x="760.75" y="474.52" width="13.55" height="14.03"/><path class="cls-2" d="M555,400.31c9,0,9-14,0-14s-9,14,0,14h0Z" transform="translate(212.52 88.24)"/><rect class="cls-1" x="783.42" y="521.44" width="11.18" height="11.57"/><path class="cls-2" d="M576.49,444.77c7.44,0,7.46-11.57,0-11.57s-7.46,11.57,0,11.57h0Z" transform="translate(212.52 88.24)"/><rect class="cls-1" x="823.43" y="533.04" width="13.51" height="13.99"/><path class="cls-2" d="M617.67,458.79c9,0,9-14,0-14s-9,14,0,14h0Z" transform="translate(212.52 88.24)"/><rect class="cls-1" x="789.48" y="621.92" width="12.47" height="12.91"/><path class="cls-2" d="M583.2,546.59c8.31,0,8.32-12.91,0-12.91s-8.32,12.91,0,12.91h0Z" transform="translate(212.52 88.24)"/><rect class="cls-1" x="836.25" y="696.89" width="10.19" height="10.55"/><path class="cls-2" d="M628.83,619.21c6.79,0,6.8-10.55,0-10.55s-6.8,10.55,0,10.55h0Z" transform="translate(212.52 88.24)"/><rect class="cls-1" x="798.9" y="753.5" width="10.11" height="10.46"/><path class="cls-2" d="M591.44,675.73c6.73,0,6.74-10.46,0-10.46s-6.74,10.46,0,10.46h0Z" transform="translate(212.52 88.24)"/><rect class="cls-1" x="852.38" y="780.58" width="8.4" height="8.7"/><path class="cls-2" d="M644.07,701c5.6,0,5.61-8.7,0-8.7s-5.61,8.7,0,8.7h0Z" transform="translate(212.52 88.24)"/><rect class="cls-1" x="809.8" y="775.11" width="10.62" height="10.99"/><path class="cls-2" d="M602.59,697.86c7.07,0,7.08-11,0-11s-7.08,11,0,11h0Z" transform="translate(212.52 88.24)"/><rect class="cls-1" x="739.41" y="805.51" width="14.11" height="14.61"/><path class="cls-2" d="M533.95,731.88c9.4,0,9.41-14.61,0-14.61s-9.41,14.61,0,14.61h0Z" transform="translate(212.52 88.24)"/><rect class="cls-1" x="714.89" y="789.42" width="8.54" height="8.84"/><path class="cls-2" d="M506.65,710c5.69,0,5.7-8.84,0-8.84s-5.7,8.84,0,8.84h0Z" transform="translate(212.52 88.24)"/><rect class="cls-1" x="639.78" y="762.43" width="11.36" height="11.76"/><path class="cls-2" d="M432.94,685.95c7.56,0,7.58-11.76,0-11.76s-7.58,11.76,0,11.76h0Z" transform="translate(212.52 88.24)"/><rect class="cls-1" x="588.67" y="786.37" width="10.32" height="10.68"/><path class="cls-2" d="M381.32,708.81c6.88,0,6.89-10.68,0-10.68s-6.89,10.68,0,10.68h0Z" transform="translate(212.52 88.24)"/><rect class="cls-1" x="513.02" y="801.58" width="13.77" height="14.26"/><path class="cls-2" d="M307.39,727.6c9.17,0,9.19-14.26,0-14.26s-9.19,14.26,0,14.26h0Z" transform="translate(212.52 88.24)"/><rect class="cls-1" x="497.48" y="813.36" width="10.97" height="11.35"/><path class="cls-2" d="M290.44,736.47c7.3,0,7.32-11.35,0-11.35s-7.32,11.35,0,11.35h0Z" transform="translate(212.52 88.24)"/><rect class="cls-1" x="415.1" y="779.02" width="12.25" height="12.68"/><path class="cls-2" d="M208.71,703.46c8.16,0,8.17-12.68,0-12.68s-8.17,12.68,0,12.68h0Z" transform="translate(212.52 88.24)"/><rect class="cls-1" x="326.42" y="772.06" width="13.58" height="14.06"/><path class="cls-2" d="M120.69,697.88c9,0,9.06-14.06,0-14.06s-9.06,14.06,0,14.06h0Z" transform="translate(212.52 88.24)"/><rect class="cls-1" x="287.54" y="789" width="7.81" height="8.09"/><path class="cls-2" d="M78.93,708.85c5.2,0,5.21-8.09,0-8.09s-5.21,8.09,0,8.09h0Z" transform="translate(212.52 88.24)"/><rect class="cls-1" x="262.77" y="826.7" width="13.15" height="13.61"/><path class="cls-2" d="M56.83,752.07c8.76,0,8.77-13.61,0-13.61s-8.77,13.61,0,13.61h0Z" transform="translate(212.52 88.24)"/><rect class="cls-1" x="219.12" y="746.96" width="8.06" height="8.35"/><path class="cls-2" d="M10.63,667.06c5.37,0,5.38-8.35,0-8.35s-5.38,8.35,0,8.35h0Z" transform="translate(212.52 88.24)"/><rect class="cls-1" x="175.94" y="803.18" width="8.68" height="8.99"/><path class="cls-2" d="M-32.24,723.93c5.78,0,5.79-9,0-9s-5.79,9,0,9h0Z" transform="translate(212.52 88.24)"/><rect class="cls-1" x="121.8" y="777.13" width="9.92" height="10.27"/><path class="cls-2" d="M-85.75,699.16c6.61,0,6.62-10.27,0-10.27s-6.62,10.27,0,10.27h0Z" transform="translate(212.52 88.24)"/><rect class="cls-1" x="67.19" y="807.35" width="13.39" height="13.87"/><path class="cls-2" d="M-138.63,733c8.92,0,8.94-13.87,0-13.87s-8.94,13.87,0,13.87h0Z" transform="translate(212.52 88.24)"/><rect class="cls-1" x="5.5" y="830.17" width="7.92" height="8.2"/><path class="cls-2" d="M-203.06,750.14c5.28,0,5.29-8.2,0-8.2s-5.29,8.2,0,8.2h0Z" transform="translate(212.52 88.24)"/><rect class="cls-1" x="370.78" y="250.9" width="8.08" height="8.36"/><path class="cls-2" d="M162.31,171c5.38,0,5.39-8.36,0-8.36s-5.39,8.36,0,8.36h0Z" transform="translate(212.52 88.24)"/><rect class="cls-1" x="395.84" y="219.23" width="8.79" height="9.1"/><path class="cls-2" d="M187.72,140.09c5.86,0,5.87-9.1,0-9.1s-5.87,9.1,0,9.1h0Z" transform="translate(212.52 88.24)"/><rect class="cls-1" x="442.93" y="240.28" width="11.83" height="12.24"/><path class="cls-2" d="M236.33,164.29c7.88,0,7.89-12.24,0-12.24s-7.89,12.24,0,12.24h0Z" transform="translate(212.52 88.24)"/><rect class="cls-1" x="511.01" y="236" width="7.34" height="7.6"/><path class="cls-2" d="M302.17,155.36c4.89,0,4.9-7.6,0-7.6s-4.9,7.6,0,7.6h0Z" transform="translate(212.52 88.24)"/><rect class="cls-1" x="553.91" y="217.33" width="11.61" height="12.02"/><path class="cls-2" d="M347.2,141.11c7.73,0,7.75-12,0-12s-7.75,12,0,12h0Z" transform="translate(212.52 88.24)"/><rect class="cls-1" x="618.52" y="148.4" width="9.77" height="10.12"/><path class="cls-2" d="M410.89,70.27c6.51,0,6.52-10.12,0-10.12s-6.52,10.12,0,10.12h0Z" transform="translate(212.52 88.24)"/><rect class="cls-1" x="654.07" y="203.12" width="10" height="10.35"/><path class="cls-2" d="M446.56,125.23c6.66,0,6.67-10.35,0-10.35s-6.67,10.35,0,10.35h0Z" transform="translate(212.52 88.24)"/><rect class="cls-1" x="664.92" y="236.03" width="13.82" height="14.3"/><path class="cls-2" d="M459.32,162.09c9.2,0,9.22-14.3,0-14.3s-9.22,14.3,0,14.3h0Z" transform="translate(212.52 88.24)"/><rect class="cls-1" x="663.53" y="253.27" width="10.44" height="10.81"/><path class="cls-2" d="M456.24,175.84c7,0,7-10.81,0-10.81s-7,10.81,0,10.81h0Z" transform="translate(212.52 88.24)"/><rect class="cls-1" x="645.41" y="281.67" width="14.42" height="14.93"/><path class="cls-2" d="M440.11,208.36c9.61,0,9.62-14.93,0-14.93s-9.62,14.93,0,14.93h0Z" transform="translate(212.52 88.24)"/><rect class="cls-1" x="656.75" y="296.28" width="13.96" height="14.45"/><path class="cls-2" d="M451.22,222.49c9.3,0,9.32-14.45,0-14.45s-9.32,14.45,0,14.45h0Z" transform="translate(212.52 88.24)"/><rect class="cls-1" x="624.75" y="314.67" width="11.35" height="11.75"/><path class="cls-2" d="M417.91,238.19c7.56,0,7.58-11.75,0-11.75s-7.58,11.75,0,11.75h0Z" transform="translate(212.52 88.24)"/><rect class="cls-1" x="614.84" y="377.74" width="14" height="14.5"/><path class="cls-2" d="M409.33,304c9.33,0,9.34-14.5,0-14.5s-9.34,14.5,0,14.5h0Z" transform="translate(212.52 88.24)"/><rect class="cls-1" x="603.07" y="461.54" width="10.67" height="11.05"/><path class="cls-2" d="M395.89,384.35c7.11,0,7.12-11,0-11s-7.12,11,0,11h0Z" transform="translate(212.52 88.24)"/><rect class="cls-1" x="646.48" y="546.58" width="11.59" height="12"/><path class="cls-2" d="M439.76,470.34c7.72,0,7.74-12,0-12s-7.74,12,0,12h0Z" transform="translate(212.52 88.24)"/><rect class="cls-1" x="644.84" y="607.45" width="10.34" height="10.7"/><path class="cls-2" d="M437.49,529.91c6.88,0,6.9-10.7,0-10.7s-6.9,10.7,0,10.7h0Z" transform="translate(212.52 88.24)"/><rect class="cls-1" x="587.47" y="619.2" width="7.39" height="7.65"/><path class="cls-2" d="M378.65,538.61c4.92,0,4.93-7.65,0-7.65s-4.93,7.65,0,7.65h0Z" transform="translate(212.52 88.24)"/><rect class="cls-1" x="623.97" y="655.29" width="10.87" height="11.26"/><path class="cls-2" d="M416.89,578.31c7.24,0,7.26-11.26,0-11.26s-7.26,11.26,0,11.26h0Z" transform="translate(212.52 88.24)"/><rect class="cls-1" x="620.15" y="661.45" width="13.16" height="13.62"/><path class="cls-2" d="M414.21,586.84c8.76,0,8.78-13.62,0-13.62s-8.78,13.62,0,13.62h0Z" transform="translate(212.52 88.24)"/><rect class="cls-1" x="579.47" y="672.49" width="10" height="10.36"/><path class="cls-2" d="M372,594.6c6.66,0,6.67-10.36,0-10.36s-6.67,10.36,0,10.36h0Z" transform="translate(212.52 88.24)"/><rect class="cls-1" x="567.53" y="696.66" width="9.42" height="9.75"/><path class="cls-2" d="M359.73,618.18c6.28,0,6.29-9.75,0-9.75s-6.29,9.75,0,9.75h0Z" transform="translate(212.52 88.24)"/><rect class="cls-1" x="547.41" y="635.62" width="7.33" height="7.59"/><path class="cls-2" d="M338.56,555c4.88,0,4.89-7.59,0-7.59s-4.89,7.59,0,7.59h0Z" transform="translate(212.52 88.24)"/><rect class="cls-1" x="486.17" y="668.12" width="13.61" height="14.09"/><path class="cls-2" d="M280.46,594c9.06,0,9.08-14.09,0-14.09s-9.08,14.09,0,14.09h0Z" transform="translate(212.52 88.24)"/><rect class="cls-1" x="419.73" y="681.62" width="8.03" height="8.32"/><path class="cls-2" d="M211.23,601.7c5.35,0,5.36-8.32,0-8.32s-5.36,8.32,0,8.32h0Z" transform="translate(212.52 88.24)"/><rect class="cls-1" x="372.26" y="644.78" width="9.99" height="10.34"/><path class="cls-2" d="M164.74,566.88c6.65,0,6.66-10.34,0-10.34s-6.66,10.34,0,10.34h0Z" transform="translate(212.52 88.24)"/><rect class="cls-1" x="359.45" y="700.44" width="13.36" height="13.83"/><path class="cls-2" d="M153.62,626c8.9,0,8.91-13.83,0-13.83s-8.91,13.83,0,13.83h0Z" transform="translate(212.52 88.24)"/><rect class="cls-1" x="318.87" y="667.95" width="12.03" height="12.45"/><path class="cls-2" d="M112.37,592.16c8,0,8-12.45,0-12.45s-8,12.45,0,12.45h0Z" transform="translate(212.52 88.24)"/><rect class="cls-1" x="281.68" y="671.04" width="14.4" height="14.9"/><path class="cls-2" d="M76.36,597.71c9.59,0,9.61-14.9,0-14.9s-9.61,14.9,0,14.9h0Z" transform="translate(212.52 88.24)"/><rect class="cls-1" x="230.91" y="692.34" width="12.57" height="13.01"/><path class="cls-2" d="M24.67,617.12c8.37,0,8.39-13,0-13s-8.39,13,0,13h0Z" transform="translate(212.52 88.24)"/><rect class="cls-1" x="220.65" y="725.88" width="12.16" height="12.59"/><path class="cls-2" d="M14.22,650.23c8.1,0,8.12-12.59,0-12.59s-8.12,12.59,0,12.59h0Z" transform="translate(212.52 88.24)"/><rect class="cls-1" x="198.52" y="718.9" width="7.96" height="8.24"/><path class="cls-2" d="M-10,638.9c5.3,0,5.31-8.24,0-8.24s-5.31,8.24,0,8.24h0Z" transform="translate(212.52 88.24)"/><rect class="cls-1" x="212.62" y="632.76" width="10.16" height="10.52"/><path class="cls-2" d="M5.18,555c6.77,0,6.78-10.52,0-10.52S-1.59,555,5.18,555h0Z" transform="translate(212.52 88.24)"/><rect class="cls-1" x="212.55" y="586.5" width="13.42" height="13.89"/><path class="cls-2" d="M6.75,512.16c8.94,0,9-13.89,0-13.89s-9,13.89,0,13.89h0Z" transform="translate(212.52 88.24)"/><rect class="cls-1" x="260.08" y="519.4" width="9.21" height="9.54"/><path class="cls-2" d="M52.17,440.7c6.14,0,6.15-9.54,0-9.54s-6.15,9.54,0,9.54h0Z" transform="translate(212.52 88.24)"/><rect class="cls-1" x="173.55" y="435.36" width="10.06" height="10.42"/><path class="cls-2" d="M-33.94,357.54c6.7,0,6.71-10.42,0-10.42s-6.71,10.42,0,10.42h0Z" transform="translate(212.52 88.24)"/><rect class="cls-1" x="189.93" y="371.13" width="8.35" height="8.64"/><path class="cls-2" d="M-18.41,291.53c5.56,0,5.57-8.64,0-8.64s-5.57,8.64,0,8.64h0Z" transform="translate(212.52 88.24)"/><rect class="cls-1" x="252.22" y="332.51" width="14.36" height="14.86"/><path class="cls-2" d="M46.88,259.14c9.56,0,9.58-14.86,0-14.86s-9.58,14.86,0,14.86h0Z" transform="translate(212.52 88.24)"/><rect class="cls-1" x="244.45" y="248.24" width="12.78" height="13.23"/><path class="cls-2" d="M38.33,173.23c8.51,0,8.52-13.23,0-13.23s-8.52,13.23,0,13.23h0Z" transform="translate(212.52 88.24)"/><rect class="cls-1" x="245.78" y="233.07" width="8.09" height="8.37"/><path class="cls-2" d="M37.31,153.2c5.39,0,5.4-8.37,0-8.37s-5.4,8.37,0,8.37h0Z" transform="translate(212.52 88.24)"/><rect class="cls-1" x="227.76" y="159.9" width="12.28" height="12.72"/><path class="cls-2" d="M21.38,84.38c8.18,0,8.2-12.72,0-12.72s-8.2,12.72,0,12.72h0Z" transform="translate(212.52 88.24)"/><rect class="cls-1" x="254.26" y="126.78" width="7.97" height="8.26"/><path class="cls-2" d="M45.74,46.79c5.31,0,5.32-8.26,0-8.26s-5.32,8.26,0,8.26h0Z" transform="translate(212.52 88.24)"/></svg>