<svg id="Layer_1" data-name="Layer 1" xmlns="http://www.w3.org/2000/svg" viewBox="0 0 461.21 581.93"><defs><style>.cls-1{fill:none;}.cls-2{fill:#fff;}</style></defs><title>stars7</title><rect class="cls-1" x="34.85" y="253" width="9.69" height="10.03"/><path class="cls-2" d="M23.77,236.08c6.45,0,6.47-10,0-10s-6.47,10,0,10h0Z" transform="translate(15.93 26.95)"/><rect class="cls-1" x="33.51" y="295.38" width="9.64" height="9.98"/><path class="cls-2" d="M22.4,278.41c6.42,0,6.43-10,0-10s-6.43,10,0,10h0Z" transform="translate(15.93 26.95)"/><rect class="cls-1" y="335.64" width="14.02" height="14.51"/><path class="cls-2" d="M-8.92,323.21c9.34,0,9.35-14.51,0-14.51s-9.35,14.51,0,14.51h0Z" transform="translate(15.93 26.95)"/><rect class="cls-1" x="68.03" y="427.65" width="12.03" height="12.45"/><path class="cls-2" d="M58.12,413.16c8,0,8-12.45,0-12.45s-8,12.45,0,12.45h0Z" transform="translate(15.93 26.95)"/><rect class="cls-1" x="41.36" y="525.78" width="12.97" height="13.43"/><path class="cls-2" d="M31.92,512.26c8.64,0,8.66-13.43,0-13.43s-8.66,13.43,0,13.43h0Z" transform="translate(15.93 26.95)"/><rect class="cls-1" x="127.67" y="499.4" width="7.61" height="7.88"/><path class="cls-2" d="M115.55,480.33c5.07,0,5.08-7.88,0-7.88s-5.08,7.88,0,7.88h0Z" transform="translate(15.93 26.95)"/><rect class="cls-1" x="194.48" y="485.93" width="12.31" height="12.75"/><path class="cls-2" d="M184.71,471.73c8.2,0,8.21-12.75,0-12.75s-8.21,12.75,0,12.75h0Z" transform="translate(15.93 26.95)"/><rect class="cls-1" x="239.04" y="483.49" width="11.19" height="11.58"/><path class="cls-2" d="M228.71,468.12c7.45,0,7.46-11.58,0-11.58s-7.46,11.58,0,11.58h0Z" transform="translate(15.93 26.95)"/><rect class="cls-1" x="253.38" y="434.24" width="9.49" height="9.82"/><path class="cls-2" d="M242.19,417.11c6.32,0,6.33-9.82,0-9.82s-6.33,9.82,0,9.82h0Z" transform="translate(15.93 26.95)"/><rect class="cls-1" x="295.34" y="410.09" width="7.36" height="7.62"/><path class="cls-2" d="M283.09,390.76c4.9,0,4.91-7.62,0-7.62s-4.91,7.62,0,7.62h0Z" transform="translate(15.93 26.95)"/><rect class="cls-1" x="266.97" y="322.29" width="13.65" height="14.13"/><path class="cls-2" d="M257.87,309.48c9.09,0,9.11-14.13,0-14.13s-9.11,14.13,0,14.13h0Z" transform="translate(15.93 26.95)"/><rect class="cls-1" x="325.8" y="312.89" width="8.63" height="8.93"/><path class="cls-2" d="M314.18,294.87c5.75,0,5.76-8.93,0-8.93s-5.76,8.93,0,8.93h0Z" transform="translate(15.93 26.95)"/><rect class="cls-1" x="385.39" y="293.36" width="11.33" height="11.73"/><path class="cls-2" d="M375.13,278.14c7.55,0,7.56-11.73,0-11.73s-7.56,11.73,0,11.73h0Z" transform="translate(15.93 26.95)"/><rect class="cls-1" x="362.39" y="185.51" width="11.02" height="11.41"/><path class="cls-2" d="M352,170c7.34,0,7.35-11.41,0-11.41S344.62,170,352,170h0Z" transform="translate(15.93 26.95)"/><rect class="cls-1" x="406.71" y="179.54" width="11.1" height="11.49"/><path class="cls-2" d="M396.33,164.08c7.39,0,7.41-11.49,0-11.49s-7.41,11.49,0,11.49h0Z" transform="translate(15.93 26.95)"/><rect class="cls-1" x="417.65" y="150.15" width="13.91" height="14.4"/><path class="cls-2" d="M408.67,137.6c9.27,0,9.28-14.4,0-14.4s-9.28,14.4,0,14.4h0Z" transform="translate(15.93 26.95)"/><rect class="cls-1" x="399.46" y="90.86" width="9" height="9.32"/><path class="cls-2" d="M388,73.22c6,0,6-9.32,0-9.32s-6,9.32,0,9.32h0Z" transform="translate(15.93 26.95)"/><rect class="cls-1" x="298.04" y="84.77" width="10.19" height="10.55"/><path class="cls-2" d="M287.21,68.37c6.79,0,6.8-10.55,0-10.55s-6.8,10.55,0,10.55h0Z" transform="translate(15.93 26.95)"/><rect class="cls-1" x="228.07" y="57.57" width="14.04" height="14.54"/><path class="cls-2" d="M219.16,45.16c9.35,0,9.37-14.54,0-14.54s-9.37,14.54,0,14.54h0Z" transform="translate(15.93 26.95)"/><rect class="cls-1" x="190.18" width="9.28" height="9.6"/><path class="cls-2" d="M178.89-17.35c6.18,0,6.19-9.6,0-9.6s-6.19,9.6,0,9.6h0Z" transform="translate(15.93 26.95)"/><rect class="cls-1" x="152.09" y="66.25" width="7.96" height="8.24"/><path class="cls-2" d="M140.14,47.54c5.3,0,5.31-8.24,0-8.24s-5.31,8.24,0,8.24h0Z" transform="translate(15.93 26.95)"/><rect class="cls-1" x="71.36" y="25.97" width="10.95" height="11.34"/><path class="cls-2" d="M60.91,10.36c7.3,0,7.31-11.34,0-11.34s-7.31,11.34,0,11.34h0Z" transform="translate(15.93 26.95)"/><rect class="cls-1" x="51.04" y="72.1" width="11.72" height="12.13"/><path class="cls-2" d="M41,57.28c7.81,0,7.82-12.13,0-12.13s-7.82,12.13,0,12.13h0Z" transform="translate(15.93 26.95)"/><rect class="cls-1" x="43.54" y="132.82" width="14.48" height="14.99"/><path class="cls-2" d="M34.85,120.86c9.65,0,9.66-15,0-15s-9.66,15,0,15h0Z" transform="translate(15.93 26.95)"/><rect class="cls-1" x="125.18" y="164.01" width="8.42" height="8.72"/><path class="cls-2" d="M113.46,145.78c5.61,0,5.62-8.72,0-8.72s-5.62,8.72,0,8.72h0Z" transform="translate(15.93 26.95)"/><rect class="cls-1" x="172.15" y="216.69" width="9.03" height="9.35"/><path class="cls-2" d="M160.74,199.09c6,0,6-9.35,0-9.35s-6,9.35,0,9.35h0Z" transform="translate(15.93 26.95)"/><rect class="cls-1" x="201.91" y="220.88" width="10.57" height="10.94"/><path class="cls-2" d="M191.26,204.88c7,0,7.05-10.94,0-10.94s-7.05,10.94,0,10.94h0Z" transform="translate(15.93 26.95)"/><rect class="cls-1" x="226.18" y="210.69" width="8.7" height="9.01"/><path class="cls-2" d="M214.6,192.75c5.8,0,5.81-9,0-9s-5.81,9,0,9h0Z" transform="translate(15.93 26.95)"/><rect class="cls-1" x="291.13" y="234.01" width="7.56" height="7.83"/><path class="cls-2" d="M279,214.89c5,0,5-7.83,0-7.83s-5,7.83,0,7.83h0Z" transform="translate(15.93 26.95)"/><rect class="cls-1" x="299.15" y="296.72" width="10.69" height="11.07"/><path class="cls-2" d="M288.57,280.84c7.12,0,7.13-11.07,0-11.07s-7.13,11.07,0,11.07h0Z" transform="translate(15.93 26.95)"/><rect class="cls-1" x="336" y="225.8" width="9.23" height="9.56"/><path class="cls-2" d="M324.68,208.41c6.15,0,6.16-9.56,0-9.56s-6.16,9.56,0,9.56h0Z" transform="translate(15.93 26.95)"/><rect class="cls-1" x="378.16" y="295.69" width="10.53" height="10.9"/><path class="cls-2" d="M367.49,279.64c7,0,7-10.9,0-10.9s-7,10.9,0,10.9h0Z" transform="translate(15.93 26.95)"/><rect class="cls-1" x="355.2" y="307.22" width="8.68" height="8.99"/><path class="cls-2" d="M343.61,289.26c5.78,0,5.79-9,0-9s-5.79,9,0,9h0Z" transform="translate(15.93 26.95)"/><rect class="cls-1" x="346.43" y="338.09" width="10.19" height="10.54"/><path class="cls-2" d="M335.59,321.69c6.78,0,6.8-10.54,0-10.54s-6.8,10.54,0,10.54h0Z" transform="translate(15.93 26.95)"/><rect class="cls-1" x="339.89" y="342.11" width="13.66" height="14.14"/><path class="cls-2" d="M330.79,329.3c9.1,0,9.11-14.14,0-14.14s-9.11,14.14,0,14.14h0Z" transform="translate(15.93 26.95)"/><rect class="cls-1" x="264.55" y="389.89" width="13.85" height="14.34"/><path class="cls-2" d="M255.55,377.28c9.23,0,9.24-14.34,0-14.34s-9.24,14.34,0,14.34h0Z" transform="translate(15.93 26.95)"/><rect class="cls-1" x="286.79" y="504.95" width="12.24" height="12.67"/><path class="cls-2" d="M277,490.67c8.15,0,8.16-12.67,0-12.67s-8.16,12.67,0,12.67h0Z" transform="translate(15.93 26.95)"/><rect class="cls-1" x="355.42" y="510.19" width="12.12" height="12.55"/><path class="cls-2" d="M345.55,495.79c8.07,0,8.09-12.55,0-12.55s-8.09,12.55,0,12.55h0Z" transform="translate(15.93 26.95)"/><rect class="cls-1" x="397.04" y="570.08" width="11.45" height="11.85"/><path class="cls-2" d="M386.84,555c7.63,0,7.64-11.85,0-11.85s-7.64,11.85,0,11.85h0Z" transform="translate(15.93 26.95)"/><rect class="cls-1" x="414.69" y="477.32" width="12.77" height="13.22"/><path class="cls-2" d="M405.15,463.6c8.51,0,8.52-13.22,0-13.22s-8.52,13.22,0,13.22h0Z" transform="translate(15.93 26.95)"/><rect class="cls-1" x="450.72" y="532.53" width="10.48" height="10.85"/><path class="cls-2" d="M440,516.43c7,0,7-10.85,0-10.85s-7,10.85,0,10.85h0Z" transform="translate(15.93 26.95)"/></svg>